<mxfile host="app.diagrams.net" modified="2024-03-06T12:21:32.640Z" agent="Mozilla/5.0 (Windows NT 10.0; Win64; x64; rv:123.0) Gecko/20100101 Firefox/123.0" etag="OAG9XUi-Q2pRlanVbHg3" version="24.0.2" type="device">
  <diagram id="LLbM1HXIpLQcIJlpowdg" name="Страница 1">
    <mxGraphModel dx="1760" dy="940" grid="1" gridSize="10" guides="1" tooltips="1" connect="1" arrows="1" fold="1" page="1" pageScale="1" pageWidth="827" pageHeight="1169" math="0" shadow="0">
      <root>
        <mxCell id="0" />
        <mxCell id="1" parent="0" />
        <mxCell id="i2faKiatH3XFWkAbGLc_-4" value="" style="ellipse;html=1;shape=startState;fillColor=#000000;strokeColor=#000000;" parent="1" vertex="1">
          <mxGeometry x="590" y="30" width="30" height="30" as="geometry" />
        </mxCell>
        <mxCell id="i2faKiatH3XFWkAbGLc_-22" style="edgeStyle=orthogonalEdgeStyle;rounded=0;orthogonalLoop=1;jettySize=auto;html=1;entryX=0.5;entryY=0;entryDx=0;entryDy=0;" parent="1" source="i2faKiatH3XFWkAbGLc_-14" target="i2faKiatH3XFWkAbGLc_-16" edge="1">
          <mxGeometry relative="1" as="geometry" />
        </mxCell>
        <mxCell id="i2faKiatH3XFWkAbGLc_-14" value="выбрать данные" style="rounded=1;whiteSpace=wrap;html=1;arcSize=33;" parent="1" vertex="1">
          <mxGeometry x="545" y="370.5" width="120" height="60" as="geometry" />
        </mxCell>
        <mxCell id="i2faKiatH3XFWkAbGLc_-18" style="edgeStyle=orthogonalEdgeStyle;rounded=0;orthogonalLoop=1;jettySize=auto;html=1;entryX=0.5;entryY=0;entryDx=0;entryDy=0;" parent="1" source="i2faKiatH3XFWkAbGLc_-16" target="i2faKiatH3XFWkAbGLc_-17" edge="1">
          <mxGeometry relative="1" as="geometry" />
        </mxCell>
        <mxCell id="i2faKiatH3XFWkAbGLc_-21" style="edgeStyle=orthogonalEdgeStyle;rounded=0;orthogonalLoop=1;jettySize=auto;html=1;entryX=0.5;entryY=0;entryDx=0;entryDy=0;" parent="1" source="i2faKiatH3XFWkAbGLc_-16" target="i2faKiatH3XFWkAbGLc_-20" edge="1">
          <mxGeometry relative="1" as="geometry" />
        </mxCell>
        <mxCell id="i2faKiatH3XFWkAbGLc_-16" value="" style="rhombus;whiteSpace=wrap;html=1;" parent="1" vertex="1">
          <mxGeometry x="577.5" y="450" width="55" height="55" as="geometry" />
        </mxCell>
        <mxCell id="i2faKiatH3XFWkAbGLc_-26" style="edgeStyle=orthogonalEdgeStyle;rounded=0;orthogonalLoop=1;jettySize=auto;html=1;entryX=0.5;entryY=0;entryDx=0;entryDy=0;" parent="1" source="i2faKiatH3XFWkAbGLc_-17" target="i2faKiatH3XFWkAbGLc_-25" edge="1">
          <mxGeometry relative="1" as="geometry" />
        </mxCell>
        <mxCell id="i2faKiatH3XFWkAbGLc_-17" value="" style="rhombus;whiteSpace=wrap;html=1;" parent="1" vertex="1">
          <mxGeometry x="412.5" y="540" width="55" height="55" as="geometry" />
        </mxCell>
        <mxCell id="i2faKiatH3XFWkAbGLc_-29" style="edgeStyle=orthogonalEdgeStyle;rounded=0;orthogonalLoop=1;jettySize=auto;html=1;entryX=0.5;entryY=0;entryDx=0;entryDy=0;" parent="1" source="i2faKiatH3XFWkAbGLc_-20" target="i2faKiatH3XFWkAbGLc_-27" edge="1">
          <mxGeometry relative="1" as="geometry">
            <mxPoint x="680" y="640" as="targetPoint" />
          </mxGeometry>
        </mxCell>
        <mxCell id="i2faKiatH3XFWkAbGLc_-33" style="edgeStyle=orthogonalEdgeStyle;rounded=0;orthogonalLoop=1;jettySize=auto;html=1;entryX=0.5;entryY=0;entryDx=0;entryDy=0;exitX=1;exitY=0.5;exitDx=0;exitDy=0;" parent="1" source="i2faKiatH3XFWkAbGLc_-20" target="i2faKiatH3XFWkAbGLc_-32" edge="1">
          <mxGeometry relative="1" as="geometry" />
        </mxCell>
        <mxCell id="i2faKiatH3XFWkAbGLc_-20" value="" style="rhombus;whiteSpace=wrap;html=1;" parent="1" vertex="1">
          <mxGeometry x="740" y="540" width="55" height="55" as="geometry" />
        </mxCell>
        <mxCell id="i2faKiatH3XFWkAbGLc_-23" value="[выбрать время]" style="text;html=1;strokeColor=none;fillColor=none;align=center;verticalAlign=middle;whiteSpace=wrap;rounded=0;" parent="1" vertex="1">
          <mxGeometry x="457.5" y="520" width="120" height="30" as="geometry" />
        </mxCell>
        <mxCell id="i2faKiatH3XFWkAbGLc_-24" value="[выбрать автомобиль]" style="text;html=1;strokeColor=none;fillColor=none;align=center;verticalAlign=middle;whiteSpace=wrap;rounded=0;" parent="1" vertex="1">
          <mxGeometry x="632.5" y="520" width="115" height="30" as="geometry" />
        </mxCell>
        <mxCell id="i2faKiatH3XFWkAbGLc_-42" style="edgeStyle=orthogonalEdgeStyle;rounded=0;orthogonalLoop=1;jettySize=auto;html=1;entryX=1;entryY=0.5;entryDx=0;entryDy=0;" parent="1" source="i2faKiatH3XFWkAbGLc_-25" target="i2faKiatH3XFWkAbGLc_-40" edge="1">
          <mxGeometry relative="1" as="geometry">
            <Array as="points">
              <mxPoint x="540" y="768" />
              <mxPoint x="468" y="768" />
            </Array>
          </mxGeometry>
        </mxCell>
        <mxCell id="i2faKiatH3XFWkAbGLc_-25" value="выбрать время" style="rounded=1;whiteSpace=wrap;html=1;arcSize=33;" parent="1" vertex="1">
          <mxGeometry x="480" y="640" width="120" height="60" as="geometry" />
        </mxCell>
        <mxCell id="i2faKiatH3XFWkAbGLc_-45" style="edgeStyle=orthogonalEdgeStyle;rounded=0;orthogonalLoop=1;jettySize=auto;html=1;entryX=0;entryY=0.5;entryDx=0;entryDy=0;" parent="1" source="i2faKiatH3XFWkAbGLc_-27" target="i2faKiatH3XFWkAbGLc_-44" edge="1">
          <mxGeometry relative="1" as="geometry" />
        </mxCell>
        <mxCell id="i2faKiatH3XFWkAbGLc_-27" value="выбрать атомобиль" style="rounded=1;whiteSpace=wrap;html=1;arcSize=33;" parent="1" vertex="1">
          <mxGeometry x="617.5" y="640" width="120" height="60" as="geometry" />
        </mxCell>
        <mxCell id="i2faKiatH3XFWkAbGLc_-46" style="edgeStyle=orthogonalEdgeStyle;rounded=0;orthogonalLoop=1;jettySize=auto;html=1;entryX=1;entryY=0.5;entryDx=0;entryDy=0;exitX=0.5;exitY=1;exitDx=0;exitDy=0;" parent="1" source="i2faKiatH3XFWkAbGLc_-32" target="i2faKiatH3XFWkAbGLc_-44" edge="1">
          <mxGeometry relative="1" as="geometry">
            <mxPoint x="850" y="720" as="sourcePoint" />
            <Array as="points">
              <mxPoint x="855" y="768" />
            </Array>
          </mxGeometry>
        </mxCell>
        <mxCell id="i2faKiatH3XFWkAbGLc_-32" value="выбрать маршрут" style="rounded=1;whiteSpace=wrap;html=1;arcSize=33;" parent="1" vertex="1">
          <mxGeometry x="795" y="640" width="120" height="60" as="geometry" />
        </mxCell>
        <mxCell id="i2faKiatH3XFWkAbGLc_-34" value="[выбрать маршрут]" style="text;html=1;strokeColor=none;fillColor=none;align=center;verticalAlign=middle;whiteSpace=wrap;rounded=0;" parent="1" vertex="1">
          <mxGeometry x="785" y="520" width="115" height="30" as="geometry" />
        </mxCell>
        <mxCell id="i2faKiatH3XFWkAbGLc_-37" style="edgeStyle=orthogonalEdgeStyle;rounded=0;orthogonalLoop=1;jettySize=auto;html=1;startArrow=classic;startFill=1;endArrow=none;endFill=0;entryX=0;entryY=0.5;entryDx=0;entryDy=0;" parent="1" source="i2faKiatH3XFWkAbGLc_-36" target="i2faKiatH3XFWkAbGLc_-17" edge="1">
          <mxGeometry relative="1" as="geometry">
            <mxPoint x="410" y="580" as="targetPoint" />
            <Array as="points">
              <mxPoint x="340" y="568" />
            </Array>
          </mxGeometry>
        </mxCell>
        <mxCell id="i2faKiatH3XFWkAbGLc_-41" style="edgeStyle=orthogonalEdgeStyle;rounded=0;orthogonalLoop=1;jettySize=auto;html=1;entryX=0;entryY=0.5;entryDx=0;entryDy=0;" parent="1" source="i2faKiatH3XFWkAbGLc_-36" target="i2faKiatH3XFWkAbGLc_-40" edge="1">
          <mxGeometry relative="1" as="geometry">
            <Array as="points">
              <mxPoint x="340" y="768" />
              <mxPoint x="392" y="768" />
            </Array>
          </mxGeometry>
        </mxCell>
        <mxCell id="i2faKiatH3XFWkAbGLc_-36" value="выбрать дату" style="rounded=1;whiteSpace=wrap;html=1;arcSize=33;" parent="1" vertex="1">
          <mxGeometry x="280" y="640" width="120" height="60" as="geometry" />
        </mxCell>
        <mxCell id="i2faKiatH3XFWkAbGLc_-38" value="[выбрать дату ]" style="text;html=1;strokeColor=none;fillColor=none;align=center;verticalAlign=middle;whiteSpace=wrap;rounded=0;" parent="1" vertex="1">
          <mxGeometry x="310" y="520" width="120" height="30" as="geometry" />
        </mxCell>
        <mxCell id="i2faKiatH3XFWkAbGLc_-48" style="edgeStyle=orthogonalEdgeStyle;rounded=0;orthogonalLoop=1;jettySize=auto;html=1;entryX=0;entryY=0.5;entryDx=0;entryDy=0;" parent="1" source="i2faKiatH3XFWkAbGLc_-40" target="i2faKiatH3XFWkAbGLc_-47" edge="1">
          <mxGeometry relative="1" as="geometry">
            <Array as="points">
              <mxPoint x="440" y="848" />
            </Array>
          </mxGeometry>
        </mxCell>
        <mxCell id="i2faKiatH3XFWkAbGLc_-40" value="" style="rhombus;whiteSpace=wrap;html=1;" parent="1" vertex="1">
          <mxGeometry x="412.5" y="740" width="55" height="55" as="geometry" />
        </mxCell>
        <mxCell id="i2faKiatH3XFWkAbGLc_-49" style="edgeStyle=orthogonalEdgeStyle;rounded=0;orthogonalLoop=1;jettySize=auto;html=1;entryX=1;entryY=0.5;entryDx=0;entryDy=0;" parent="1" source="i2faKiatH3XFWkAbGLc_-44" target="i2faKiatH3XFWkAbGLc_-47" edge="1">
          <mxGeometry relative="1" as="geometry">
            <Array as="points">
              <mxPoint x="765" y="848" />
            </Array>
          </mxGeometry>
        </mxCell>
        <mxCell id="i2faKiatH3XFWkAbGLc_-44" value="" style="rhombus;whiteSpace=wrap;html=1;" parent="1" vertex="1">
          <mxGeometry x="737.5" y="740" width="55" height="55" as="geometry" />
        </mxCell>
        <mxCell id="i2faKiatH3XFWkAbGLc_-51" style="edgeStyle=orthogonalEdgeStyle;rounded=0;orthogonalLoop=1;jettySize=auto;html=1;entryX=0.5;entryY=0;entryDx=0;entryDy=0;" parent="1" source="i2faKiatH3XFWkAbGLc_-47" target="i2faKiatH3XFWkAbGLc_-50" edge="1">
          <mxGeometry relative="1" as="geometry" />
        </mxCell>
        <mxCell id="i2faKiatH3XFWkAbGLc_-47" value="" style="rhombus;whiteSpace=wrap;html=1;" parent="1" vertex="1">
          <mxGeometry x="577.5" y="820" width="55" height="55" as="geometry" />
        </mxCell>
        <mxCell id="i2faKiatH3XFWkAbGLc_-53" style="edgeStyle=orthogonalEdgeStyle;rounded=0;orthogonalLoop=1;jettySize=auto;html=1;entryX=0.5;entryY=0;entryDx=0;entryDy=0;" parent="1" source="i2faKiatH3XFWkAbGLc_-50" target="XCnsm4jpdo41RX4qQ-dl-3" edge="1">
          <mxGeometry relative="1" as="geometry">
            <mxPoint x="605" y="1040" as="targetPoint" />
          </mxGeometry>
        </mxCell>
        <mxCell id="i2faKiatH3XFWkAbGLc_-50" value="проверка данных" style="rounded=1;whiteSpace=wrap;html=1;arcSize=33;" parent="1" vertex="1">
          <mxGeometry x="545" y="930" width="120" height="60" as="geometry" />
        </mxCell>
        <mxCell id="i2faKiatH3XFWkAbGLc_-54" value="" style="ellipse;html=1;shape=endState;fillColor=#000000;strokeColor=#050000;" parent="1" vertex="1">
          <mxGeometry x="590" y="1910" width="30" height="30" as="geometry" />
        </mxCell>
        <mxCell id="XCnsm4jpdo41RX4qQ-dl-2" value="" style="edgeStyle=orthogonalEdgeStyle;rounded=0;orthogonalLoop=1;jettySize=auto;html=1;" parent="1" source="XCnsm4jpdo41RX4qQ-dl-1" target="i2faKiatH3XFWkAbGLc_-14" edge="1">
          <mxGeometry relative="1" as="geometry" />
        </mxCell>
        <mxCell id="XCnsm4jpdo41RX4qQ-dl-1" value="заполнить данные о поездке" style="rounded=1;whiteSpace=wrap;html=1;arcSize=33;" parent="1" vertex="1">
          <mxGeometry x="545" y="260" width="120" height="60" as="geometry" />
        </mxCell>
        <mxCell id="XCnsm4jpdo41RX4qQ-dl-6" style="edgeStyle=orthogonalEdgeStyle;rounded=0;orthogonalLoop=1;jettySize=auto;html=1;" parent="1" source="XCnsm4jpdo41RX4qQ-dl-3" target="XCnsm4jpdo41RX4qQ-dl-5" edge="1">
          <mxGeometry relative="1" as="geometry" />
        </mxCell>
        <mxCell id="XCnsm4jpdo41RX4qQ-dl-10" style="edgeStyle=orthogonalEdgeStyle;rounded=0;orthogonalLoop=1;jettySize=auto;html=1;entryX=0.5;entryY=0;entryDx=0;entryDy=0;" parent="1" source="XCnsm4jpdo41RX4qQ-dl-3" target="XCnsm4jpdo41RX4qQ-dl-9" edge="1">
          <mxGeometry relative="1" as="geometry" />
        </mxCell>
        <mxCell id="XCnsm4jpdo41RX4qQ-dl-3" value="" style="rhombus;whiteSpace=wrap;html=1;" parent="1" vertex="1">
          <mxGeometry x="577.5" y="1050" width="55" height="55" as="geometry" />
        </mxCell>
        <mxCell id="XCnsm4jpdo41RX4qQ-dl-4" value="[введены неверные данные]" style="text;html=1;strokeColor=none;fillColor=none;align=center;verticalAlign=middle;whiteSpace=wrap;rounded=0;" parent="1" vertex="1">
          <mxGeometry x="400" y="1040" width="177.5" height="30" as="geometry" />
        </mxCell>
        <mxCell id="zKrWPegAEg7dP9wOik8g-9" style="edgeStyle=orthogonalEdgeStyle;rounded=0;orthogonalLoop=1;jettySize=auto;html=1;exitX=0;exitY=0.5;exitDx=0;exitDy=0;entryX=0;entryY=0.5;entryDx=0;entryDy=0;" edge="1" parent="1" source="XCnsm4jpdo41RX4qQ-dl-5" target="zKrWPegAEg7dP9wOik8g-2">
          <mxGeometry relative="1" as="geometry" />
        </mxCell>
        <mxCell id="XCnsm4jpdo41RX4qQ-dl-5" value="уведомить о некорректно введенных данных" style="rounded=1;whiteSpace=wrap;html=1;arcSize=33;" parent="1" vertex="1">
          <mxGeometry x="250" y="1047.5" width="140" height="60" as="geometry" />
        </mxCell>
        <mxCell id="XCnsm4jpdo41RX4qQ-dl-13" style="edgeStyle=orthogonalEdgeStyle;rounded=0;orthogonalLoop=1;jettySize=auto;html=1;entryX=0.5;entryY=0;entryDx=0;entryDy=0;" parent="1" source="XCnsm4jpdo41RX4qQ-dl-9" target="XCnsm4jpdo41RX4qQ-dl-12" edge="1">
          <mxGeometry relative="1" as="geometry" />
        </mxCell>
        <mxCell id="XCnsm4jpdo41RX4qQ-dl-9" value="рассчитать данные" style="rounded=1;whiteSpace=wrap;html=1;arcSize=33;" parent="1" vertex="1">
          <mxGeometry x="545" y="1169" width="120" height="60" as="geometry" />
        </mxCell>
        <mxCell id="XCnsm4jpdo41RX4qQ-dl-11" value="[создать отчет]" style="text;whiteSpace=wrap;html=1;" parent="1" vertex="1">
          <mxGeometry x="480" y="1420" width="92.5" height="20" as="geometry" />
        </mxCell>
        <mxCell id="XCnsm4jpdo41RX4qQ-dl-15" style="edgeStyle=orthogonalEdgeStyle;rounded=0;orthogonalLoop=1;jettySize=auto;html=1;entryX=0.5;entryY=0;entryDx=0;entryDy=0;" parent="1" source="XCnsm4jpdo41RX4qQ-dl-12" target="XCnsm4jpdo41RX4qQ-dl-14" edge="1">
          <mxGeometry relative="1" as="geometry" />
        </mxCell>
        <mxCell id="XCnsm4jpdo41RX4qQ-dl-12" value="выбрать дальнейшие действия" style="rounded=1;whiteSpace=wrap;html=1;arcSize=33;" parent="1" vertex="1">
          <mxGeometry x="545" y="1290" width="120" height="60" as="geometry" />
        </mxCell>
        <mxCell id="XCnsm4jpdo41RX4qQ-dl-17" style="edgeStyle=orthogonalEdgeStyle;rounded=0;orthogonalLoop=1;jettySize=auto;html=1;" parent="1" source="XCnsm4jpdo41RX4qQ-dl-14" target="XCnsm4jpdo41RX4qQ-dl-16" edge="1">
          <mxGeometry relative="1" as="geometry" />
        </mxCell>
        <mxCell id="XCnsm4jpdo41RX4qQ-dl-22" style="edgeStyle=orthogonalEdgeStyle;rounded=0;orthogonalLoop=1;jettySize=auto;html=1;entryX=0.5;entryY=0;entryDx=0;entryDy=0;" parent="1" source="XCnsm4jpdo41RX4qQ-dl-14" target="XCnsm4jpdo41RX4qQ-dl-21" edge="1">
          <mxGeometry relative="1" as="geometry" />
        </mxCell>
        <mxCell id="XCnsm4jpdo41RX4qQ-dl-14" value="" style="rhombus;whiteSpace=wrap;html=1;" parent="1" vertex="1">
          <mxGeometry x="577.5" y="1420" width="55" height="55" as="geometry" />
        </mxCell>
        <mxCell id="XCnsm4jpdo41RX4qQ-dl-23" style="edgeStyle=orthogonalEdgeStyle;rounded=0;orthogonalLoop=1;jettySize=auto;html=1;entryX=0;entryY=0.5;entryDx=0;entryDy=0;" parent="1" source="XCnsm4jpdo41RX4qQ-dl-16" target="XCnsm4jpdo41RX4qQ-dl-21" edge="1">
          <mxGeometry relative="1" as="geometry">
            <Array as="points">
              <mxPoint x="470" y="1647" />
            </Array>
          </mxGeometry>
        </mxCell>
        <mxCell id="XCnsm4jpdo41RX4qQ-dl-16" value="сформировать отчет" style="rounded=1;whiteSpace=wrap;html=1;arcSize=33;" parent="1" vertex="1">
          <mxGeometry x="413" y="1510" width="120" height="60" as="geometry" />
        </mxCell>
        <mxCell id="XCnsm4jpdo41RX4qQ-dl-18" value="[введены верные данные]" style="text;whiteSpace=wrap;html=1;" parent="1" vertex="1">
          <mxGeometry x="630" y="1117.5" width="150" height="20" as="geometry" />
        </mxCell>
        <mxCell id="XCnsm4jpdo41RX4qQ-dl-19" value="[выйти]" style="text;whiteSpace=wrap;html=1;" parent="1" vertex="1">
          <mxGeometry x="630" y="1490" width="52.5" height="20" as="geometry" />
        </mxCell>
        <mxCell id="zKrWPegAEg7dP9wOik8g-7" style="edgeStyle=orthogonalEdgeStyle;rounded=0;orthogonalLoop=1;jettySize=auto;html=1;exitX=0.5;exitY=1;exitDx=0;exitDy=0;entryX=0.5;entryY=0;entryDx=0;entryDy=0;" edge="1" parent="1" source="XCnsm4jpdo41RX4qQ-dl-21" target="zKrWPegAEg7dP9wOik8g-6">
          <mxGeometry relative="1" as="geometry" />
        </mxCell>
        <mxCell id="XCnsm4jpdo41RX4qQ-dl-21" value="" style="rhombus;whiteSpace=wrap;html=1;" parent="1" vertex="1">
          <mxGeometry x="577.5" y="1620" width="55" height="55" as="geometry" />
        </mxCell>
        <mxCell id="zKrWPegAEg7dP9wOik8g-3" style="edgeStyle=orthogonalEdgeStyle;rounded=0;orthogonalLoop=1;jettySize=auto;html=1;entryX=0.5;entryY=0;entryDx=0;entryDy=0;" edge="1" parent="1" source="zKrWPegAEg7dP9wOik8g-2" target="XCnsm4jpdo41RX4qQ-dl-1">
          <mxGeometry relative="1" as="geometry" />
        </mxCell>
        <mxCell id="zKrWPegAEg7dP9wOik8g-2" value="" style="rhombus;whiteSpace=wrap;html=1;" vertex="1" parent="1">
          <mxGeometry x="577.5" y="140" width="55" height="55" as="geometry" />
        </mxCell>
        <mxCell id="zKrWPegAEg7dP9wOik8g-4" style="edgeStyle=orthogonalEdgeStyle;rounded=0;orthogonalLoop=1;jettySize=auto;html=1;entryX=0.5;entryY=0;entryDx=0;entryDy=0;" edge="1" parent="1" source="i2faKiatH3XFWkAbGLc_-4" target="zKrWPegAEg7dP9wOik8g-2">
          <mxGeometry relative="1" as="geometry" />
        </mxCell>
        <mxCell id="zKrWPegAEg7dP9wOik8g-8" style="edgeStyle=orthogonalEdgeStyle;rounded=0;orthogonalLoop=1;jettySize=auto;html=1;entryX=0.5;entryY=0;entryDx=0;entryDy=0;" edge="1" parent="1" source="zKrWPegAEg7dP9wOik8g-6" target="i2faKiatH3XFWkAbGLc_-54">
          <mxGeometry relative="1" as="geometry" />
        </mxCell>
        <mxCell id="zKrWPegAEg7dP9wOik8g-6" value="просмотреть данные о поезке" style="rounded=1;whiteSpace=wrap;html=1;arcSize=33;" vertex="1" parent="1">
          <mxGeometry x="545" y="1754" width="120" height="60" as="geometry" />
        </mxCell>
      </root>
    </mxGraphModel>
  </diagram>
</mxfile>
